<?xml version="1.0" encoding="UTF-8" standalone="yes"?>
<!-- Created with sK1/UniConvertor (http://sk1project.org/) -->
<svg xmlns="http://www.w3.org/2000/svg" xmlns:xlink="http://www.w3.org/1999/xlink"
  width="595.276pt" height="841.89pt" viewBox="0 0 595.276 841.89"
  fill-rule="evenodd">
<g>
<path style="stroke:#000000; stroke-width:0.850394; stroke-linejoin:round; stroke-linecap:round; fill:none" d="M 32.2 706.93C 32.2 704.612 30.3183 702.73 28 702.73C 25.6817 702.73 23.8 704.612 23.8 706.93C 23.8 709.248 25.6817 711.13 28 711.13C 30.3183 711.13 32.2 709.248 32.2 706.93z"/>
<path style="stroke:#000000; stroke-width:0.850394; stroke-linejoin:round; stroke-linecap:round; fill:none" d="M 816.2 706.93C 816.2 704.612 814.318 702.73 812 702.73C 809.682 702.73 807.8 704.612 807.8 706.93C 807.8 709.248 809.682 711.13 812 711.13C 814.318 711.13 816.2 709.248 816.2 706.93z"/>
<path style="stroke:#000000; stroke-width:0.850394; stroke-linejoin:round; stroke-linecap:round; fill:none" d="M 322 832.93L 518 832.93L 518 841.89L 658 841.89L 658 832.93L 756 832.93L 756 720.93L 840 720.93L 840 664.93L 0 664.93L 0 720.93L 84 720.93L 84 832.93L 182 832.93L 182 841.89L 322 841.89L 322 832.93z"/>
<path style="stroke:#000000; stroke-width:0.850394; stroke-linejoin:round; stroke-linecap:round; fill:none" d="M 700 688.45L 588 688.45L 588 697.41L 700 697.41L 700 688.45z"/>
<path style="stroke:#000000; stroke-width:0.850394; stroke-linejoin:round; stroke-linecap:round; fill:none" d="M 252 697.41L 140 697.41L 140 688.45L 252 688.45L 252 697.41z"/>
</g>
</svg>