<?xml version="1.0" encoding="UTF-8" standalone="yes"?>
<!-- Created with sK1/UniConvertor (http://sk1project.org/) -->
<svg xmlns="http://www.w3.org/2000/svg" xmlns:xlink="http://www.w3.org/1999/xlink"
  width="595.276pt" height="841.89pt" viewBox="0 0 595.276 841.89"
  fill-rule="evenodd">
<g>
<path style="stroke:#000000; stroke-width:0.850394; stroke-linejoin:round; stroke-linecap:round; fill:none" d="M 800.231 817.64C 800.231 810.145 794.147 804.061 786.651 804.061C 779.156 804.061 773.072 810.145 773.072 817.64C 773.072 825.136 779.156 831.22 786.651 831.22C 794.147 831.22 800.231 825.136 800.231 817.64z"/>
<path style="stroke:#000000; stroke-width:0.850394; stroke-linejoin:round; stroke-linecap:round; fill:none" d="M 68.8684 819.58C 68.8684 812.085 62.7843 806.001 55.2887 806.001C 47.7931 806.001 41.709 812.085 41.709 819.58C 41.709 827.076 47.7931 833.16 55.2887 833.16C 62.7843 833.16 68.8684 827.076 68.8684 819.58z"/>
<path style="stroke:#000000; stroke-width:0.850394; stroke-linejoin:round; stroke-linecap:round; fill:none" d="M 800.231 515.008C 800.231 507.512 794.147 501.428 786.651 501.428C 779.156 501.428 773.072 507.512 773.072 515.008C 773.072 522.503 779.156 528.587 786.651 528.587C 794.147 528.587 800.231 522.503 800.231 515.008z"/>
<path style="stroke:#000000; stroke-width:0.850394; stroke-linejoin:round; stroke-linecap:round; fill:none" d="M 68.8684 515.008C 68.8684 507.512 62.7843 501.428 55.2887 501.428C 47.7931 501.428 41.709 507.512 41.709 515.008C 41.709 522.503 47.7931 528.587 55.2887 528.587C 62.7843 528.587 68.8684 522.503 68.8684 515.008z"/>
<path style="stroke:#000000; stroke-width:0.850394; stroke-linejoin:round; stroke-linecap:round; fill:none" d="M 762.984 781.848L 762.984 550.8L 77.0162 550.8L 77.0162 781.848L 762.984 781.848z"/>
<path style="stroke:#000000; stroke-width:0.850394; stroke-linejoin:round; stroke-linecap:round; fill:none" d="M 1.13687e-13 841.89L 0 490.758L 840 490.758L 840 841.89L 1.13687e-13 841.89z"/>
</g>
</svg>