<?xml version="1.0" encoding="UTF-8" standalone="yes"?>
<!-- Created with sK1/UniConvertor (http://sk1project.org/) -->
<svg xmlns="http://www.w3.org/2000/svg" xmlns:xlink="http://www.w3.org/1999/xlink"
  width="595.276pt" height="841.89pt" viewBox="0 0 595.276 841.89"
  fill-rule="evenodd">
<g>
<path style="stroke:#000000; stroke-width:0.850394; stroke-linejoin:round; stroke-linecap:round; fill:none" d="M 392.357 99.9789C 392.357 60.6027 360.395 28.6414 321.019 28.6414C 281.643 28.6414 249.682 60.6027 249.682 99.9789C 249.682 139.355 281.643 171.317 321.019 171.317C 360.395 171.317 392.357 139.355 392.357 99.9789z"/>
<path style="stroke:#000000; stroke-width:0.850394; stroke-linejoin:round; stroke-linecap:round; fill:none" d="M 160.51 99.9789C 160.51 60.6027 128.548 28.6414 89.172 28.6414C 49.7958 28.6414 17.8344 60.6027 17.8344 99.9789C 17.8344 139.355 49.7958 171.317 89.172 171.317C 128.548 171.317 160.51 139.355 160.51 99.9789z"/>
<path style="stroke:#000000; stroke-width:0.850394; stroke-linejoin:round; stroke-linecap:round; fill:none" d="M 249.682 813.355L 294.268 813.355L 294.268 189.151L 410.191 189.151L 410.191 1.88977L 0 1.88977L 0 189.151L 115.924 189.151L 115.924 813.355L 160.51 813.355L 160.51 841.89L 249.682 841.89L 249.682 813.355z"/>
</g>
</svg>